# xmcd CD database file
#
# Track frame offsets:
#	150
#	17242
#	34780
#	55580
#	77135
#	95025
#	111342
#	128442
#	147567
#	167752
#
# Disc length: 2499 seconds
#
# Revision: 2
# Processed by: cddbd v1.5PL3 Copyright (c) Steve Scherf et al.
# Submitted via: CDex 1.51
#
DISCID=8309c10a
DTITLE=FIREHOUSE - O2
DYEAR=2000
DGENRE=Hard Rock
TTITLE0=Jumpin'
TTITLE1=Take It Off
TTITLE2=The Dark
TTITLE3=Don't Fade On Me
TTITLE4=I'd Rather Be Making Love
TTITLE5=What You Can Do
TTITLE6=I'm In Love This Time
TTITLE7=Unbelievable
TTITLE8=Loving You Is Paradise
TTITLE9=Call Of The Night
EXTD=YEAR: 2000
EXTT0=
EXTT1=
EXTT2=
EXTT3=
EXTT4=
EXTT5=
EXTT6=
EXTT7=
EXTT8=
EXTT9=
PLAYORDER=
